<svg width="68" height="68" viewBox="0 0 68 68" fill="none" xmlns="http://www.w3.org/2000/svg">
<path d="M59 34C59 47.8071 47.8071 59 34 59C20.1929 59 9 47.8071 9 34C9 20.1929 20.1929 9 34 9C47.8071 9 59 20.1929 59 34Z" fill="#F08F1E" stroke="#F08F1E" stroke-width="17.2381" stroke-linecap="round" stroke-linejoin="round"/>
<path d="M14.7792 36.2512L16.4482 35.4667L14.4817 33.8711C14.745 33.4391 14.9871 33.007 15.3564 32.575C16.1034 31.6954 16.7069 30.8068 17.7235 29.944C18.5461 29.2973 19.3356 28.6185 20.3307 28.1659C21.0759 27.7836 21.8967 27.4769 22.7335 27.1862C23.9257 26.8633 25.3216 26.5484 26.9948 26.2441C27.6183 26.0535 28.2985 25.9309 28.8393 25.6411L29.8687 24.344C30.4654 23.8448 31.0155 23.3339 31.7509 22.8693C32.3957 22.5804 32.8223 22.2353 34.0715 22.1018C34.5333 22.0097 34.9837 22.0788 35.4271 22.2456C35.7165 22.393 35.9624 22.5715 35.9953 22.9021C35.9384 23.3021 35.8049 23.702 35.563 24.102L34.4324 26.0061C34.3139 26.2769 34.1079 26.4603 34.0883 26.8301C35.0628 27.1321 36.0373 27.4129 37.0118 27.8208C37.9383 28.1011 38.6607 28.4948 39.4305 28.8621C40.341 29.2132 40.927 29.5642 41.5736 29.9153C42.6169 30.5172 43.4604 31.1192 44.3463 31.7211L45.4084 32.6256C45.8805 31.9443 46.2048 31.4017 47.2728 30.5797C47.9752 30.1048 48.6254 29.6115 49.629 29.2429C50.4317 29.0535 51.143 28.8012 52.2233 28.8026C52.6426 28.8221 53.3832 28.8291 53.5184 29.1447L52.382 30.063C51.9026 30.4525 51.4233 31.0239 50.944 31.5525C50.4029 32.3842 50.1302 32.9474 49.9384 33.4298C49.8035 33.9409 49.6203 34.4519 49.6965 34.963C49.7004 35.523 50.1029 36.2327 50.3788 36.8948L51.8078 38.6401L53.5155 40.1326C53.2148 40.6182 53.2581 40.4859 52.4752 40.8744C51.8755 41.0386 51.2759 41.0154 50.6763 40.9409L49.1887 40.4053C48.6187 39.993 47.943 39.6064 47.6 39.1766L46.178 37.7456L45.3777 36.752C45.0676 37.2198 44.6977 37.6533 44.2581 38.0471C43.6433 38.5728 42.9909 39.0046 42.3401 39.4404L40.81 40.2318L39.1122 40.9805C37.8282 41.5072 36.529 41.9576 35.2268 42.3927L33.5498 42.8836C33.5195 43.2313 33.6916 43.4778 33.9564 43.6779L35.1395 44.5327L36.0925 45.3737C35.7782 45.636 35.3272 45.7389 34.9084 45.8794C34.5326 45.9775 34.0332 45.9314 33.5508 45.9052C32.7927 45.6813 32.17 45.358 31.6894 44.9304L30.9139 44.2035L30.1831 43.2465C29.7061 43.0388 29.2291 42.9205 28.7521 42.8419L25.7453 42.4879C24.3263 42.3864 22.8899 42.1807 21.4156 41.7471C20.2972 41.3166 19.2272 40.7892 18.2382 40.0999C17.4338 39.4066 16.6722 38.7231 16.1061 38.0848L14.7792 36.2512Z" fill="#F7F7F7" stroke="#F7F7F7" stroke-width="0.278832"/>
<path d="M24.4372 32.2857C24.4372 33.1371 23.747 33.8273 22.8956 33.8273C22.0442 33.8273 21.354 33.1371 21.354 32.2857C21.354 31.4343 22.0442 30.744 22.8956 30.744C23.747 30.744 24.4372 31.4343 24.4372 32.2857Z" fill="#F08F1E" stroke="#F08F1E" stroke-width="0.39242"/>
<path d="M25.8174 41.3103L26.7156 40.5099L27.8204 39.1361L28.6079 37.5954C28.8289 37.1277 29.0276 36.5634 29.1011 35.9851L29.2365 34.6749C29.2287 34.1031 29.2209 33.5318 29.1044 32.8876C28.9965 32.222 28.8308 31.5372 28.5565 30.8162L27.7862 29.1898L26.8617 27.7689L26.5878 27.3238L27.2475 27.8962L28.3158 29.0052L28.8224 29.682L29.5494 30.9873L29.9261 32.0487L30.1657 32.8705L30.3027 33.6408L30.337 34.6851L30.2685 35.6951L30.0289 36.7394L29.7501 37.6478L29.2243 38.5027L28.7792 39.1019L28.1751 39.7706L27.224 40.4944L26.2626 41.1391L25.8174 41.3103Z" fill="#F08F1E" stroke="#F08F1E" stroke-width="0.278832"/>
</svg>
