<svg width="68" height="67" viewBox="0 0 68 67" fill="none" xmlns="http://www.w3.org/2000/svg">
<path d="M59 33.5192C59 47.0164 47.8071 57.9581 34 57.9581C20.1929 57.9581 9 47.0164 9 33.5192C9 20.0219 20.1929 9.08023 34 9.08023C47.8071 9.08023 59 20.0219 59 33.5192Z" fill="#F08F1E" stroke="#F08F1E" stroke-width="17.2381" stroke-linecap="round" stroke-linejoin="round"/>
<path d="M25.0669 58.5154L26.9133 55.5889L28.8176 52.9063L28.4051 52.6644L28.0752 52.3015L27.7452 51.3742L27.8036 50.084L28.5701 47.7859L29.5187 46.0119L30.4261 44.7217L30.591 45.8103L30.6735 47.9068L30.6127 49.4793L30.4673 50.971L31.5396 49.8421L32.8594 48.5923L33.5606 47.9068L33.1894 47.3424L33.1265 46.6619L33.2719 45.9313L33.5098 45.3811L34.0555 44.2379L35.0454 42.9074L35.664 42.222L36.3396 41.4954L37.1562 39.628L37.9144 37.4756L37.6228 38.6587L37.1708 40.1269L36.6458 41.5809L36.3688 43.5908L36.0917 45.0448L35.7709 46.1709L38.2936 44.4603L38.0165 44.104L37.9144 43.6193L38.0019 42.8638L38.4831 41.866L39.8392 40.3123L41.0641 39.2432L41.4724 38.9438L42.4348 37.3473L43.2222 35.7793L42.6244 37.2048L42.0557 38.3166L41.6474 39.0864L41.2537 40.7684L40.7579 42.1653L40.2038 43.3912L42.8577 42.1796L42.5806 41.7377L42.5369 41.196L42.8723 40.3835L43.3097 39.7706L44.2284 38.8583L45.1179 38.2168L45.9199 37.7179L46.0948 37.5896L46.7073 36.7914L47.3489 35.9218L47.728 35.3802L48.0488 34.8385L47.5239 35.8221L46.8677 36.8484L46.2844 37.7037L45.774 39.0151L45.2491 40.1982L44.695 41.1248L44.2867 41.6664L45.75 41.2037L47.6113 40.6829L47.8206 40.6418L47.9433 40.6258L47.9613 40.5973L47.8069 40.2811C47.8071 40.2366 47.7952 40.1852 47.7937 40.1448C47.7893 40.0231 47.7961 39.9203 47.8464 39.7572C47.9709 39.4414 48.1278 39.2028 48.4151 38.9547C48.7185 38.6947 49.0147 38.4135 49.3441 38.2295L50.0353 37.8001L50.2309 37.6861L50.8194 36.9624L51.1401 36.549L51.388 36.1927L50.8923 36.9624L50.2652 37.8177L50.0903 38.0458L49.6905 38.8298L49.3825 39.4226L48.9675 40.0699L48.5083 40.5304L49.3217 40.366L50.3245 40.2041L51.2552 40.0909L52.6232 39.9416L51.3692 40.1269C50.4337 40.2185 49.5741 40.4462 48.7196 40.6829L49.6528 40.9252L50.4548 41.2673L50.8777 41.4384L51.7088 41.5667L52.8754 41.8375L51.563 41.5952L50.9068 41.5524L50.0903 41.7092L48.8654 41.8375L48.0634 41.752L47.6405 41.5667L47.3343 41.2388L47.276 41.0963C46.593 41.2146 45.9461 41.4915 45.2886 41.7217L43.8347 42.3364L44.3596 42.4077L45.6136 42.6643L46.4156 42.9208L47.6114 43.3057L48.1217 43.3485L49.3028 43.5053L50.2652 43.6906L50.9943 43.8759L49.7403 43.6763L48.3259 43.5338L47.5676 43.5195L46.751 43.8189L45.4678 44.0897L44.1263 44.2465L43.2368 44.1895L42.6535 44.0184L42.2015 43.6906L41.9099 43.2772L40.685 43.9187L39.4747 44.6599L40.4079 44.6741L41.764 44.8737L42.9598 45.0875L43.9951 45.3441L44.87 45.3156L45.7011 45.3298L46.751 45.4154L47.276 45.4439L47.7863 45.5152L46.2698 45.4724L43.8638 45.6149L43.091 45.9L42.3911 46.1994L40.7871 46.6698L39.5914 46.8266L38.7602 46.7838L38.2061 46.6555L37.8124 46.4132L37.477 46.0568C36.5775 46.3818 36.0562 47.0354 35.4939 47.6534L36.4417 47.5821L37.477 47.5678L38.4686 47.6106L39.4893 47.6961L40.058 47.8102L40.8016 47.6961L41.6766 47.5963L42.566 47.5108L43.3389 47.4538L44.4617 47.4396L43.3097 47.5536L41.5307 47.7959L40.2621 48.0668L39.1685 48.7225L37.7832 49.3924L36.7187 49.8058L35.6105 50.1052L34.5169 50.1622L33.9336 50.0339L33.5545 49.8771L33.3212 49.706C32.4135 50.4295 31.7594 51.4008 31.0318 52.3004L31.9651 52.0723L33.1462 51.8442L34.2544 51.6874L35.071 51.6019L35.8147 51.5306L36.4854 51.3025L37.5353 50.9462L38.5706 50.6611L39.5476 50.4188L40.4079 50.2192L39.2851 50.5756L38.1332 50.9462L36.9375 51.4023L35.9751 51.8157L35.6688 51.9725L34.2252 53.1841L33.1462 54.0109L31.863 54.7379L30.9589 55.1513L30.3027 55.3081L29.6174 55.3651L29.2237 55.2938L28.9321 55.194C27.9399 56.4132 27.3283 57.7067 26.7156 59L25.0669 58.5154Z" fill="#F7F7F7" stroke="#F7F7F7" stroke-width="0.278832" stroke-linecap="round" stroke-linejoin="round"/>
<path d="M18.1664 55.2346L19.5584 56.0914L20.0327 53.6017L20.6616 50.9912L21.3937 48.1185L21.6102 48.1991L22.1877 48.3705L22.9197 48.3806L23.425 48.2899L23.9405 48.1185L24.3942 47.8766L25.0438 47.4936L25.8068 46.8687L26.5079 46.1631L27.1884 45.4273L27.6627 44.7923L28.1577 44.117L28.8794 43.0183L29.6321 41.7987L30.0652 41.0226L30.3745 40.4279L32.2923 38.7345L33.4781 37.8072L34.8391 36.769L35.6228 36.2247L35.0041 36.5976L33.9215 37.2931L32.4779 38.2507L31.3025 39.1478L30.5498 39.7223L30.2508 40.0045L30.0033 40.1759L29.8177 40.3573L28.6113 40.8915L27.4875 41.4257L26.3533 41.9902L25.3119 42.5546L24.2086 43.23L23.3837 43.7642L22.4557 44.5L23.858 40.4279H23.9714L24.5179 40.6395L24.9303 40.7L25.8377 40.6093L26.7038 40.2565L27.4875 39.7425L28.2505 39.0974L29.1887 38.0693L30.4261 36.386L31.0963 35.3377L31.5087 34.6926L31.9521 33.8661L33.7152 32.2736L34.7051 31.4672L35.6537 30.7314L36.561 30.0762L36.9013 29.8444L36.1898 30.2778L34.9319 31.0842L33.9936 31.7293L32.9935 32.4348L32.1377 33.1202L31.7252 33.4629L30.4364 34.0173L29.1991 34.5918L28.2814 35.0656L27.5493 35.4587L26.2914 36.2146L25.2809 36.9303L25.2603 36.8194L26.6316 33.725L27.1266 33.9468L27.8277 34.0576L28.8279 33.8359L29.5599 33.4932L30.1683 33.0396L30.7766 32.5054L31.4571 31.82L32.1686 30.933L32.8182 30.0661L33.4471 29.1489L34.0555 28.141L35.1588 27.2036L36.1692 26.4274L36.9941 25.8328L37.5303 25.4699L38.0149 25.1776L38.6129 24.7744L37.9427 25.1473L37.19 25.5908L36.4373 26.0444L35.5609 26.5786L34.571 27.2943L33.8183 27.8285L31.9624 28.5643L30.6117 29.1691L29.2712 29.8646L28.137 30.5903L29.993 27.1229L30.2714 27.3447L30.756 27.5261L31.2509 27.5664L31.818 27.4757L32.5089 27.1633L33.3544 26.5786L34.4679 25.3993L35.4578 24.0185L36.0867 22.9903L36.5714 22.1638L37.3653 21.4381L38.3448 20.6519L39.015 20.1479L39.5718 19.7347L40.3348 19.2307L39.6543 19.6339L38.881 20.0874L38.2108 20.541L37.2209 21.2264L36.592 21.7102L36.2311 22.0026L35.0556 22.5065L33.9318 23.0206L32.7151 23.6959L31.9521 24.1696L31.5603 24.4519L33.5296 21.4583L33.7255 21.6296L34.0967 21.8614L34.6432 21.932L35.2103 21.8614L35.829 21.6296L36.726 21.0248L37.6024 20.1983L38.1077 19.6238L38.9532 18.5352L39.4378 17.7994L39.5306 17.6885L40.0667 17.245L40.9019 16.6705L41.6546 16.1665L42.232 15.8037L42.7166 15.4811L43.0363 15.2997L42.562 15.5214L41.8093 15.8843L41.1597 16.2371L40.4998 16.6403L40.0255 16.9628L39.7162 17.1644L39.3037 17.4365L38.417 17.7389L37.3034 18.1723L36.3136 18.636L35.499 19.0593L34.9525 19.392L37.7159 15.8137L38.0974 15.3803L37.3756 15.7936L34.7669 18.7973L34.7876 17.5373L34.571 16.3278L34.272 15.2291L33.9936 14.2817L33.5503 13.1225L33.4162 11.7315L33.3234 10.9353L33.1069 9.81644L32.9316 9L33.0244 9.71565L33.1378 10.643L33.1997 11.6509L33.2616 13.0318L32.9729 13.7878L32.7666 14.7453L32.4985 16.0153L32.3851 17.0031L32.4058 18.0716L32.6429 18.9283L32.9935 19.4928L33.375 19.8254L33.7152 19.9665L33.8699 20.027L31.1375 23.7967L31.055 22.5368L30.7973 21.4381L30.5292 20.4806L30.1477 19.5028L29.7249 18.4647L29.3743 17.6785L29.1991 17.3458L28.9928 16.1161L28.7866 15.1586L28.5907 14.3018L28.3948 13.5459L28.1164 12.679L28.3226 13.5358L28.5185 14.6244L28.7145 15.9045L28.8279 17.2753L28.8485 17.4869L28.5907 18.6158L28.4051 19.6137L28.2401 20.9543V22.698L28.3742 23.5044L28.6938 24.3511L29.1991 24.9861L29.5599 25.1776L29.8177 25.3187L30.0033 25.359L30.1374 25.3792L27.8586 29.1892L27.7762 28.2619L27.5906 27.3649L27.2606 26.115L26.8894 24.9559L26.5079 23.9378L26.1883 23.1315L25.9202 22.5065L25.7449 21.045L25.5593 20.0068L25.3634 19.0291L25.1159 17.9808L24.8272 16.9124L25.0025 17.88L25.2087 19.1198L25.3222 20.2084L25.4253 21.418L25.4871 22.2546L25.1984 23.2827L24.9097 24.4922L24.7241 25.4699L24.5592 26.8609L24.5179 27.9293L24.621 28.9877L24.8375 29.8243L25.2809 30.6306L25.6933 31.054L26.0852 31.2858L26.3739 31.3967L26.6316 31.4773L25.0747 34.5919L24.6107 32.7876L23.9714 31.0338L23.5177 29.9351L23.0434 28.8768L22.8166 28.393L22.7238 28.2115L22.5073 26.9919L22.1258 25.2381L21.9196 24.3914L21.734 23.6858L21.5587 23.1012L21.3834 22.5368L21.27 22.1437L21.4968 23.1315L21.8061 24.5224L22.0227 25.8227L22.167 26.8508L22.3011 28.0301L22.0742 28.9171L21.8268 30.1972L21.5999 31.5277L21.4659 33.0194V34.5818L21.6102 35.63L21.9608 36.8295L22.2804 37.3738L22.6413 37.8072L22.9816 38.0693L23.2497 38.2306L23.4353 38.3213L22.3217 41.1032L22.0227 39.8533L21.5587 38.4019L21.105 37.1924L20.6204 35.9929L19.9605 34.6019L19.579 33.8157L19.3831 32.7574L19.115 31.5478L18.8985 30.6306L18.5788 29.4614L18.187 28.1712L17.8777 27.2338L18.1561 28.2619L18.5273 29.8948L18.8366 31.5277L19.0531 33.1606L19.1356 33.856L18.8572 35.1765L18.6098 36.4465L18.3829 38.1096L18.2798 39.8634L18.3417 41.0629L18.4345 41.9398L18.6819 42.9578L19.0841 43.865L19.5068 44.4395L20.0842 44.9435L20.641 45.1552L20.8678 45.2358L20.1048 47.7657L19.3831 50.2151L18.7335 52.8357L18.1664 55.2346Z" fill="#F7F7F7" stroke="#F7F7F7" stroke-width="0.278832" stroke-linecap="round" stroke-linejoin="round"/>
</svg>
