<svg width="69" height="69" viewBox="0 0 69 69" fill="none" xmlns="http://www.w3.org/2000/svg">
<path d="M67 34.5C67 52.4493 52.4493 67 34.5 67C16.5507 67 2 52.4493 2 34.5C2 16.5507 16.5507 2 34.5 2C52.4493 2 67 16.5507 67 34.5Z" fill="#F08F1E" stroke="#F08F1E" stroke-width="2.45784" stroke-linecap="round" stroke-linejoin="round"/>
<path d="M37.955 15.5592L41.3355 14.4158L43.8212 13.7695L45.412 13.8192L46.6051 14.217L47.5994 15.1615L47.6988 16.3049L47.5 17.1003L46.6548 17.7963L45.2132 18.542L44.1692 19.1883L43.5726 19.9837L43.1749 21.674L42.8766 23.0659L43.1749 25.2036L44.2686 26.6453L45.76 28.7332L47.4005 32.2629L48.0965 34.5497L48.7428 38.5765L48.9417 41.4101L48.7926 44.1444L48.2458 47.1272L47.3509 49.2648L46.307 51.0545L45.1138 52.9933L43.9704 54.1368L42.5785 54.9322L40.0431 55.2304L33.1826 55.131L30.9952 54.9322L29.9513 54.6836L29.1061 54.1368L28.0124 52.9436L25.6759 49.4637L24.7811 46.978L24.1845 44.7409L24.0851 42.5038L24.1349 41.5593L23.3892 40.4656L22.2955 38.4771L21.3012 36.4388L20.4064 33.3566L20.0584 31.6166L20.307 29.1309L20.7544 26.695L21.699 24.7065L23.5383 22.6682L25.4275 21.6242L27.4657 20.9283L26.6206 19.238L26.372 17.9952L26.5709 17.15L27.6646 16.3546L29.8519 15.7084L32.1885 15.3604H33.9781H35.7181L36.7621 15.5095L36.5632 15.6089L35.6684 15.8575H34.4753L33.0336 15.9569L30.9953 16.1558L29.4542 16.6529L28.5594 17.15L28.808 17.6472L29.8022 17.8957L31.2936 18.0946L31.9399 18.0449L33.3319 17.5477L35.6684 16.5535L37.3587 15.8078L37.955 15.5592Z" fill="#F7F7F7" stroke="#F7F7F7" stroke-width="0.278832" stroke-linecap="round" stroke-linejoin="round"/>
<path d="M24.259 37.6071L24.6318 35.2706L25.4024 32.6357L26.3469 30.2247L27.1921 28.6587L27.9129 27.565L28.1366 27.1673L28.4598 26.2476L28.5344 24.7313L28.3604 23.6873L28.1367 23.4139L27.7887 23.2399L27.5152 23.3394L26.0736 24.1348L25.0544 24.8805L23.6376 26.347L22.8919 27.6147L22.3699 29.2055L22.2208 30.8709L22.3949 32.5115L22.6932 34.0277L23.1654 35.4197L23.6625 36.4637L24.259 37.6071Z" fill="#F08F1E" stroke="#F08F1E" stroke-width="0.278832" stroke-linejoin="round"/>
<path d="M30.6472 21.1271L31.3183 20.9034L32.064 20.8786L32.5114 20.978L32.76 21.5L32.8594 22.2954V23.8614L32.8096 25.2782L32.5859 26.6702L32.1385 27.7639L31.8651 28.3107L31.4673 29.1061L30.9951 29.8767L30.2494 31.0947L29.7522 32.2629L28.9071 34.152L28.3106 35.892L27.9128 36.8614L27.5897 37.6568L27.2666 37.8308L26.9931 37.7811L26.8192 37.6568L26.7197 37.1597L27.1671 34.7734L27.7637 33.0086L28.6088 30.7218L29.4788 29.1061L30.1997 27.7141L30.6968 26.5956L30.8459 25.6759L30.5973 23.6377L30.4731 22.196L30.4483 21.6243L30.6472 21.1271Z" fill="#F08F1E" stroke="#F08F1E" stroke-width="0.278832" stroke-linecap="round" stroke-linejoin="round"/>
</svg>
