<svg width="68" height="68" viewBox="0 0 68 68" fill="none" xmlns="http://www.w3.org/2000/svg">
<path d="M59 34C59 47.8071 47.8071 59 34 59C20.1929 59 9 47.8071 9 34C9 20.1929 20.1929 9 34 9C47.8071 9 59 20.1929 59 34Z" fill="#F08F1E" stroke="#F08F1E" stroke-width="17.2381" stroke-linecap="round" stroke-linejoin="round"/>
<path d="M42.5321 34.4449L43.1246 33.156L43.8778 32.0479L44.5995 31.3467L45.3625 30.7487L46.2905 30.2744L47.5278 29.9032L48.7445 29.6557L49.6519 29.532L50.518 29.4701L51.5284 29.5732L52.1471 29.7588L52.5389 30.0269L52.8895 30.3569L53.1163 30.6868L53.24 31.223L53.2607 31.7591L53.2091 31.9757L46.8318 35.5999L53.3999 32.3211L53.5803 32.5118L53.7968 32.7129L54.0598 33.0583L54.2453 33.4089L54.3485 33.6821L54.4206 34.0069L54.4514 34.342L54.3793 34.8112L54.2866 35.136L54.1268 35.5123L53.9257 35.868L53.6731 36.2444L53.4462 36.5382L53.0493 36.9713L52.776 37.2188L52.2141 37.7034L51.7037 38.09L50.8582 38.6314L50.1106 39.0541L49.4662 39.3789L48.6981 39.714L47.8165 40.0182L47.1411 40.1728L46.806 40.2038L46.4812 40.2244L46.0636 40.1935L45.744 40.1471L45.4037 40.0697L45.1099 39.9666L44.8624 39.8635L44.3108 39.5439L43.986 39.3016L43.5942 38.9407L43.3364 38.6417L43.0219 38.2499L42.692 37.7137L42.5064 37.358L42.4084 37.1054L42.331 36.8115L42.2949 36.5486L42.2588 36.1464L42.2742 35.7392L42.3207 35.2597L42.4392 34.7696L42.5321 34.4449Z" fill="#F7F7F7" stroke="#F7F7F7" stroke-width="0.1" stroke-linecap="round" stroke-linejoin="round"/>
<path d="M37.6052 51.8162L36.3042 50.9478L35.5612 49.7965L35.1688 48.8423L34.8449 47.8693L34.5742 46.8629L34.4688 45.5755L34.3579 44.3339L34.4258 43.3593L34.5865 42.3971L34.9794 41.5938L35.2898 41.0273L35.6335 40.6999L36.0292 40.4257L36.3992 40.2725L36.9493 40.2632L37.4781 40.3546L37.6791 40.4501L39.7941 48.5463L38.0567 40.3354L38.2604 40.0555L38.543 39.8652L38.9356 39.6186L39.2762 39.5509L39.6058 39.5069L39.9181 39.5041L40.3136 39.605L40.7166 39.8345L41.0967 40.0542L41.3293 40.2889L41.6354 40.5596L41.9509 40.885L42.1911 41.168L42.532 41.6465L42.7172 41.9652L43.0742 42.6158L43.3461 43.1955L43.8018 44.0942L44.121 45.0361L44.2432 45.7136L44.3906 46.4938L44.4228 47.3989L44.4333 48.0917L44.3938 48.4259L44.3463 48.7478L44.2292 49.1498L44.1173 49.4528L43.9708 49.7695L43.8088 50.0355L43.6564 50.2561L43.229 50.729L43.0061 51.0576L42.6943 51.3657L42.3686 51.6374L41.9403 51.9452L41.429 52.1359L40.9607 52.2024L40.5705 52.2457L40.267 52.2806L39.9205 52.2817L39.5401 52.2742L39.1654 52.2357L38.7675 52.1722L38.1696 51.9951L37.6052 51.8162Z" fill="#F7F7F7" stroke="#F7F7F7" stroke-width="0.1" stroke-linecap="round" stroke-linejoin="round"/>
<path d="M25.8233 28.6192L26.824 26.1174L27.9781 23.9484L29.2344 21.7827L30.355 20.1207L31.9449 18.5308L33.1468 17.7103L34.9445 17.1555L37.0457 16.8797L39.2826 17.0909L41.1792 18.1327L42.718 19.3379L43.5695 20.7786L43.8352 22.335L43.7774 24.1705L43.4606 25.7914L42.6912 27.3302L41.9318 28.1951L40.492 29.2469L39.2314 30.2141L37.3147 31.5794L35.4356 33.0503L34.4718 34.3955L33.1643 36.7346L32.0815 39.3663L30.8453 41.2731L29.4087 42.5428L27.8389 43.6491L25.2274 44.5275L22.6158 44.9465L20.2154 45.0723L18.2542 44.8544L17.0046 44.4864L16.0307 43.8461L15.1558 42.6711L14.7098 39.4577L15.1591 37.5711L16.1397 35.3409L17.2393 33.7577L18.9792 31.9189L21.2673 30.3935L22.8035 29.6065L24.2987 29.0718L25.8233 28.6192Z" stroke="#F7F7F7" stroke-width="2" stroke-linecap="round" stroke-linejoin="round"/>
<path d="M31.1194 20.5821L33.317 20.9869L35.8616 21.7965L38.1171 22.9532L40.4882 24.6303L42.628 26.3653" stroke="#F7F7F7" stroke-width="0.5" stroke-linecap="round" stroke-linejoin="round"/>
<path d="M28.4013 24.5146L31.4664 24.746L33.8954 25.5556L36.3243 27.4063L38.5798 29.8352" stroke="#F7F7F7" stroke-width="0.5"/>
<path d="M26.2037 29.5461H27.5338L28.5748 29.8352L30.5411 30.8184L31.8713 31.6859L32.6809 32.4955L34.0689 33.9992" stroke="#F7F7F7" stroke-width="0.5"/>
<path d="M19.2059 32.4955L21.1144 32.7847L23.4855 33.4209L25.6253 34.2883L27.476 35.6185L28.7483 36.9486L29.3844 37.9896L30.6567 40.3607" stroke="#F7F7F7" stroke-width="0.5"/>
<path d="M16.083 36.2546L19.4373 37.0065L21.1723 37.7004L23.2542 38.7993L24.9892 40.3607L25.9145 41.4017L27.5338 43.4258" stroke="#F7F7F7" stroke-width="0.5"/>
<path d="M33.5484 18.6158L33.4327 20.8712L32.5652 22.8375L31.2351 25.5556L28.4591 29.8352L24.353 33.8257L22.1554 35.8498L20.0734 37.3534L17.9336 39.0884L17.0662 39.8402L15.3312 41.0547L15.6203 40.8234" stroke="#F7F7F7" stroke-width="0.5"/>
<path d="M16.8927 43.715L17.8758 43.1945L22.2711 39.7824L24.7001 37.6426L26.6664 35.6185L29.2688 32.6112L31.0616 30.1244L32.9122 27.6954L34.4159 24.9773L35.0521 23.5893L35.9195 21.6809L36.6135 19.1941L36.9027 17.4013" stroke="#F7F7F7" stroke-width="0.5"/>
<path d="M39.7364 17.7483L38.869 20.2929L37.8858 23.4158L36.787 26.4809L34.9942 29.2569L33.4327 31.281L32.4496 32.4955L30.8303 34.9823L29.6736 36.4281L28.8061 37.4113L27.1868 39.2041L25.5675 40.4185L20.5939 44.5246" stroke="#F7F7F7" stroke-width="0.5"/>
<path d="M41.4136 18.9627L40.8931 21.623L40.6617 23.1845L40.1991 24.8616L39.2738 27.4063L38.4641 29.6617" stroke="#F7F7F7" stroke-width="0.5"/>
</svg>
