<svg width="68" height="68" viewBox="0 0 68 68" fill="none" xmlns="http://www.w3.org/2000/svg">
<path d="M59 34C59 47.8071 47.8071 59 34 59C20.1929 59 9 47.8071 9 34C9 20.1929 20.1929 9 34 9C47.8071 9 59 20.1929 59 34Z" fill="#F08F1E" stroke="#F08F1E" stroke-width="17.2381" stroke-linecap="round" stroke-linejoin="round"/>
<path d="M42.7082 37.9317L42.3965 40.5177L42.0681 41.6864C41.9493 42.1539 41.7655 42.5843 41.5516 42.9976C41.3422 43.3232 40.9411 43.5941 40.6358 43.8923L39.0218 45.0661L37.7746 45.8548L36.8393 46.3133L34.9136 46.3316L33.8315 46.295C32.9263 46.3423 31.9277 46.2963 30.9737 46.295C29.9522 45.8814 28.9778 45.1378 27.9809 44.5526L26.2202 43.1037L25.6742 41.8953L25.234 39.8911L24.973 37.1614L25.1931 36.0243L25.5855 35.3448L25.9817 34.8689L26.4403 33.8234L27.3023 31.6776L27.7608 30.9807L28.5127 30.3388L29.4848 29.8802L29.9249 29.5501L30.1634 29.2567L30.2734 29.0182L30.4018 28.5414L30.5669 28.1746L31.062 28.0645L31.5756 28.2479L32.1258 28.6148L32.621 28.7248L33.1529 28.6514L33.5807 28.6566C33.6731 28.6861 33.6489 28.7155 33.6673 28.745L33.8385 28.7666L33.91 28.8228L33.9458 28.7257L34.094 28.7309L34.1809 28.6492L34.4416 28.6439L34.7841 28.69L35.055 28.6848L35.3464 28.6952L35.5968 28.639L35.8013 28.547L36.154 28.3067L36.2971 28.2504L36.4863 28.1789L36.7419 28.1022L37.0434 28.1126L37.2786 28.2762L37.3961 28.5676L37.4728 29.1299L37.6312 29.3241L37.9686 29.6973L38.7251 30.0755L39.1903 30.2954L39.6606 30.6327L39.9622 30.9446L40.3098 31.5426L40.4222 31.7675L40.7442 32.4116L41.1327 33.3675L41.2656 33.7202L41.6797 34.6659L42.1397 35.3508L42.5026 35.9642L42.5742 36.1585L42.7225 36.501L42.7082 37.9317Z" fill="#F7F7F7" stroke="#F7F7F7" stroke-width="0.278832"/>
<path d="M25.0286 35.3157L25.4638 34.7605H25.5031L25.6801 34.5246L26.1323 33.3056L26.5058 32.2046L24.5636 30.7206L24.9133 30.1796L25.1493 29.3539L25.1376 28.0027L24.9133 26.7194L25.8373 26.1886L27.1688 25.1486L28.5898 23.5934L29.3762 22.0402L29.6711 20.4674C29.631 20.0726 29.6436 19.7833 29.5138 19.2091L29.3762 18.5996L28.924 19.4254L28.2949 20.4477L27.4888 21.3718L26.781 22.1385L25.9356 22.8266L25.1295 23.3575L24.5648 23.653L24.5987 22.5317L25.0312 20.1921L25.7587 18.3244L26.4665 16.6336L25.68 17.2234L24.5004 17.9705L23.9106 18.4227L23.0652 19.2681L22.3574 20.1725L21.7086 21.0965L21.0402 22.5121L20.5094 24.3798L20.3521 25.6577L20.3127 26.6604L20.47 28.1153L20.706 29.0393L21.0205 30.0027L21.3547 30.5728L21.7283 30.9267L22.0625 31.1823L22.4557 31.8704L22.6917 32.3423L23.2618 33.4236L23.8516 34.1707L24.2448 34.6425L24.613 35.0297L24.8468 35.2588C24.9819 35.2316 24.9605 35.178 25.0286 35.3157H25.0286Z" fill="#F7F7F7" stroke="#F7F7F7" stroke-width="0.278832"/>
<path d="M25.0038 35.42L24.0801 35.122L23.3574 34.8836L22.6199 34.6899L22.2101 34.6005L21.8823 34.5409L21.6588 34.5781L21.4726 34.6526L21.331 34.7718L21.0703 34.9953L20.9362 35.0996L20.8468 35.271L20.8617 35.4572L20.9138 35.6807L21.0926 35.9638L21.3459 36.1947L21.5992 36.3959L22.0015 36.7013L22.5007 36.9695L22.9179 37.1707L23.3649 37.3718L24.2812 37.7443L23.4096 37.871L22.4634 38.0125L21.6663 38.1019L21.115 38.1913L20.8393 38.3254L20.6308 38.5415L20.5115 38.8395L20.4221 39.1524L20.4296 39.4429L20.5935 39.6962L20.899 39.8825L21.2714 40.0091L21.7259 40.1209L22.158 40.173L22.7018 40.1953L23.3202 40.1879L23.8268 40.1432L24.3855 40.091L24.5122 40.0612L24.2887 40.1432L23.9385 40.2624L23.2531 40.5753L22.6199 41.0074L22.2995 41.2681L21.9792 41.5661L21.629 41.9684L21.3608 42.3707L21.2118 42.6911L21.1671 43.0859L21.3087 43.3839L21.4875 43.585L21.6588 43.6968L21.86 43.8086L22.0835 43.8681L22.3144 43.8234L22.6422 43.7042L22.9253 43.5701L23.268 43.3616L23.6703 43.1083L23.946 42.9518L24.2812 42.8028L24.758 42.6091L25.1156 42.5123L25.272 42.4676L25.0262 42.6166L24.7878 42.8028L24.4004 43.1604L24.2291 43.4062L23.9832 43.7862L23.7746 44.2183L23.6405 44.5759L23.5884 44.7919L23.6107 45.0601L23.6778 45.3805L23.9162 45.5891L24.1099 45.6636L24.2067 45.671L24.393 45.7604L24.6016 45.82L24.907 45.7232L25.1752 45.5295L25.5253 45.1719L25.8308 44.9633L26.4715 44.5759L26.8887 44.3896L26.9781 44.3375L26.7322 44.1438L26.3746 43.8532L26.1288 43.5776L25.868 43.2424L25.6818 42.9444L25.3093 42.0802L25.138 41.514L24.8847 40.4337L24.8474 40.0911L24.6165 38.4893L24.5643 37.722L24.5941 36.7088L24.6313 36.4704L24.6686 36.4108L24.6611 36.3438L24.6835 36.0905L24.8474 35.7329L24.9591 35.5094L25.0038 35.42Z" fill="#F7F7F7" stroke="#F7F7F7" stroke-width="0.278832"/>
<path d="M18.758 33.0551L18.8445 33.262L19.046 33.6026L19.2685 33.971L19.4701 34.2282L19.6855 34.5201L19.8385 34.687L19.9636 34.7843L20.1512 34.8746L20.3042 34.8955L20.5127 34.8885L20.7143 34.7912L20.9159 34.5896L21.0271 34.3116L21.041 34.0544L20.9298 33.6374L20.7212 33.401L20.3111 32.8866L19.8524 32.2263L19.5396 31.7536L19.3519 31.4617L19.1294 31.2532L18.9696 31.1489L18.7402 31.0933L18.5039 31.1976L18.344 31.3574L18.3023 31.5868L18.344 31.844L18.4135 32.1707L18.5317 32.5183L18.6012 32.7198L18.6868 32.8977L18.758 33.0551Z" fill="#F7F7F7" stroke="#F7F7F7" stroke-width="0.278832"/>
<path d="M17.8694 28.2505L17.8438 28.4908L17.8029 28.731L17.8081 29.1553L17.8183 29.5182L17.8336 29.8096L17.8643 30.1725L17.8847 30.3872L17.9154 30.5252L17.987 30.653L18.0739 30.7808L18.1761 30.8371L18.3192 30.8984L18.4777 30.8779L18.6464 30.8166L18.7537 30.6888L18.8151 30.5763L18.856 30.4486L18.8662 30.3361L18.8764 30.239L18.8304 30.1776L18.7384 29.8914L18.6157 29.416L18.5492 29.1042L18.5237 28.9304L18.4112 28.547L18.2885 28.1176L18.1863 27.8569L18.1403 27.7853L18.0789 27.7496L17.992 27.8416L17.9307 28.0205L17.9 28.1636L17.8694 28.2505Z" fill="#F7F7F7" stroke="#F7F7F7" stroke-width="0.278832"/>
<path d="M16.0394 32.9329L15.973 32.9993L15.9168 33.2242L15.8861 33.444L15.8605 33.7405L15.8452 34.1034L15.8503 34.3437L15.8605 34.5788L15.9014 34.8753L15.9678 35.182L16.0445 35.4887L16.111 35.591L16.1672 35.7392L16.2439 35.8619L16.3665 35.9283L16.5352 35.9539L16.6681 35.9181L16.7141 35.8823L16.8982 35.775L16.98 35.6574L17.0106 35.5756L17.0464 35.4478L17.0106 35.2331L16.9135 35.0951L16.6681 34.5993L16.5148 34.1597L16.341 33.5463L16.2285 33.1885L16.1519 32.9789L16.111 32.9073L16.0394 32.9329Z" fill="#F7F7F7" stroke="#F7F7F7" stroke-width="0.278832"/>
<path d="M17.7954 38.0778L17.5705 37.8632L17.32 37.6749L17.0696 37.4603L16.9418 37.2763L16.8242 37.0355L16.7271 36.8165L16.7117 36.6632L16.7153 36.4176L16.8318 36.2916L16.9545 36.2184C17.038 36.1101 17.1216 36.116 17.2052 36.1257L17.5036 36.2532L17.9603 36.584L18.4126 36.9075L18.8853 37.1879L19.4766 37.5171L19.9066 37.7625L20.0037 37.7887L20.1826 37.977L20.2593 38.0559L20.3206 38.196L20.3155 38.3055L20.2746 38.4675L20.203 38.6121L20.1161 38.7434L20.0343 38.8179L19.8861 38.8924L19.7123 38.9405L19.5027 38.9318L19.3392 38.9099L18.9967 38.7872L18.6286 38.5858L18.2606 38.3712L17.9999 38.2267L17.7954 38.0778Z" fill="#F7F7F7" stroke="#F7F7F7" stroke-width="0.258087"/>
<path d="M21.1272 45.9716L21.5661 44.9939C21.639 44.8792 21.743 44.8164 21.7158 44.535C21.6462 44.3131 21.6477 44.2892 21.5662 44.1558C21.4564 43.9363 21.3467 43.9401 21.2369 43.8465C21.0156 43.6951 20.8911 43.7857 20.7347 43.7967C20.4312 43.9676 20.3666 44.0907 20.226 44.229L19.6972 45.5692L19.5176 46.3574L19.4378 47.2553L19.6107 47.774L19.9566 48.0334L20.2858 47.957L20.4687 47.7042L20.8611 46.6434L21.1272 45.9716Z" fill="#F7F7F7" stroke="#F7F7F7" stroke-width="0.278832"/>
<path d="M19.7755 48.5874L19.9218 48.4011L20.0283 48.3479L20.1661 48.3215L20.3742 48.3346L20.5472 48.4011L20.6271 48.5874L20.6537 48.6939L20.7335 48.8935L20.7867 49.1064L20.8799 49.4595L21.0263 49.8249L21.2125 50.264L21.3323 50.61L21.4787 50.8761L21.5452 51.0225V51.1423L21.4121 51.1556L21.1859 51.0491L20.9863 50.9161L20.667 50.6366L20.4142 50.2907L20.0815 49.785L19.9351 49.4595L19.7973 49.0713L19.7488 48.787L19.7755 48.5874Z" fill="#F7F7F7" stroke="#F7F7F7" stroke-width="0.278832"/>
<path d="M25.8268 49.7372L25.9146 49.6407L26.0287 49.5529L26.1692 49.4595H26.3886L26.8188 49.588L27.249 49.7197L27.5387 49.8075L27.9337 49.9216L28.241 49.983L28.6009 50.0708L28.8906 50.1586L29.0311 50.2903L28.9872 50.3606L28.8555 50.422L28.6975 50.4659L28.5219 50.4922L28.2761 50.5537L27.9601 50.58L27.7406 50.5888H27.407L27.1173 50.5625L26.7662 50.5273L26.494 50.4747L26.1516 50.3957L25.9322 50.2552L25.7917 50.0708V49.8338L25.8268 49.7372Z" fill="#F7F7F7" stroke="#F7F7F7" stroke-width="0.278832"/>
<path d="M24.668 47.762L24.6329 47.5249L24.6241 47.2879V47.1211L24.6592 46.9455V46.8314L24.668 46.7261L24.6241 46.5417L24.4748 46.3222L24.3519 46.1905L24.1325 46.1028L23.992 46.015H23.8515L23.6935 46.0413L23.553 46.1291L23.3424 46.2608L23.1843 46.4978L23.1404 46.6646L23.0878 46.9719L23.0965 47.3055L23.1404 47.7005L23.2019 48.0429L23.2897 48.3765L23.4565 48.7452L23.6847 49.07L24.0008 49.4595L24.3431 49.6494L24.6153 49.825L24.9401 49.9128L25.1684 49.9392L25.3615 49.8865L25.4581 49.7636L25.5371 49.6143L25.5898 49.4595L25.5371 49.2017L25.3791 48.9647L25.0981 48.6135L24.8962 48.3414L24.7821 48.1395L24.7031 47.9463L24.668 47.762Z" fill="#F7F7F7" stroke="#F7F7F7" stroke-width="0.278832"/>
<path d="M42.9714 35.5266L42.5361 34.9713H42.4968L42.3199 34.7354L41.8677 33.5165L41.4941 32.4155L43.4364 30.9314L43.0866 30.3905L42.8507 29.5647L42.8624 28.2135L43.0867 26.9302L42.1627 26.3994L40.8311 25.3595L39.4102 23.8042L38.6238 22.2511L38.3289 20.6782C38.369 20.2834 38.3563 19.9942 38.4862 19.42L38.6238 18.8105L39.076 19.6362L39.7051 20.6586L40.5112 21.5826L41.219 22.3494L42.0643 23.0375L42.8704 23.5683L43.4352 23.8638L43.4013 22.7426L42.9687 20.403L42.2413 18.5352L41.5335 16.8445L42.3199 17.4343L43.4996 18.1814L44.0894 18.6335L44.9348 19.4789L45.6425 20.3833L46.2913 21.3074L46.9598 22.7229L47.4906 24.5907L47.6479 25.8686L47.6872 26.8713L47.5299 28.3261L47.294 29.2502L46.9795 30.2135L46.6452 30.7837L46.2717 31.1376L45.9374 31.3932L45.5442 32.0813L45.3083 32.5531L44.7382 33.6344L44.1484 34.3815L43.7551 34.8534L43.387 35.2406L43.1531 35.4697C43.0181 35.4424 43.0394 35.3889 42.9714 35.5266H42.9714Z" fill="#F7F7F7" stroke="#F7F7F7" stroke-width="0.278832"/>
<path d="M42.9962 35.6308L43.9199 35.3328L44.6426 35.0944L45.3801 34.9008L45.7899 34.8113L46.1177 34.7517L46.3412 34.789L46.5274 34.8635L46.669 34.9827L46.9297 35.2062L47.0638 35.3105L47.1532 35.4818L47.1383 35.6681L47.0862 35.8916L46.9074 36.1747L46.6541 36.4056L46.4008 36.6068L45.9985 36.9122L45.4993 37.1804L45.0821 37.3816L44.6351 37.5827L43.7188 37.9552L44.5904 38.0818L45.5366 38.2234L46.3337 38.3128L46.885 38.4022L47.1607 38.5363L47.3692 38.7523L47.4885 39.0503L47.5779 39.3632L47.5704 39.6538L47.4065 39.9071L47.101 40.0933L46.7286 40.22L46.2741 40.3317L45.842 40.3839L45.2982 40.4062L44.6798 40.3988L44.1732 40.3541L43.6145 40.3019L43.4878 40.2721L43.7113 40.3541L44.0615 40.4733L44.7469 40.7862L45.3801 41.2183L45.7005 41.479L46.0208 41.777L46.371 42.1793L46.6392 42.5816L46.7882 42.9019L46.8329 43.2968L46.6913 43.5948L46.5125 43.7959L46.3412 43.9077L46.14 44.0194L45.9165 44.079L45.6856 44.0343L45.3578 43.9151L45.0747 43.781L44.732 43.5724L44.3297 43.3191L44.054 43.1627L43.7188 43.0137L43.242 42.82L42.8844 42.7231L42.728 42.6784L42.9738 42.8274L43.2122 43.0137L43.5996 43.3713L43.7709 43.6171L44.0168 43.9971L44.2254 44.4292L44.3595 44.7868L44.4116 45.0028L44.3893 45.271L44.3222 45.5913L44.0838 45.7999L43.8901 45.8744L43.7933 45.8819L43.607 45.9713L43.3984 46.0309L43.093 45.934L42.8248 45.7404L42.4747 45.3828L42.1692 45.1742L41.5285 44.7868L41.1113 44.6005L41.0219 44.5484L41.2678 44.3547L41.6254 44.0641L41.8712 43.7885L42.132 43.4532L42.3182 43.1552L42.6907 42.2911L42.862 41.7249L43.1153 40.6446L43.1526 40.3019L43.3835 38.7002L43.4357 37.9329L43.4059 36.9197L43.3687 36.6813L43.3314 36.6217L43.3389 36.5546L43.3165 36.3013L43.1526 35.9437L43.0409 35.7202L42.9962 35.6308Z" fill="#F7F7F7" stroke="#F7F7F7" stroke-width="0.278832"/>
<path d="M49.242 33.266L49.1555 33.4729L48.954 33.8135L48.7315 34.1819L48.5299 34.4391L48.3145 34.731L48.1615 34.8978L48.0364 34.9952L47.8488 35.0855L47.6958 35.1064L47.4873 35.0994L47.2857 35.0021L47.0841 34.8005L46.9729 34.5225L46.959 34.2653L47.0702 33.8482L47.2788 33.6119L47.6889 33.0975L48.1476 32.4372L48.4604 31.9645L48.6481 31.6726L48.8706 31.464L49.0304 31.3598L49.2598 31.3042L49.4961 31.4084L49.656 31.5683L49.6977 31.7977L49.656 32.0549L49.5865 32.3816L49.4683 32.7291L49.3988 32.9307L49.3132 33.1086L49.242 33.266Z" fill="#F7F7F7" stroke="#F7F7F7" stroke-width="0.278832"/>
<path d="M50.1306 28.4614L50.1562 28.7016L50.1971 28.9419L50.1919 29.3661L50.1817 29.7291L50.1664 30.0204L50.1357 30.3834L50.1153 30.5981L50.0846 30.7361L50.013 30.8639L49.9261 30.9917L49.8239 31.0479L49.6808 31.1092L49.5223 31.0888L49.3536 31.0275L49.2463 30.8997L49.1849 30.7872L49.144 30.6594L49.1338 30.5469L49.1236 30.4498L49.1696 30.3885L49.2616 30.1022L49.3843 29.6268L49.4508 29.315L49.4763 29.1412L49.5888 28.7578L49.7115 28.3285L49.8137 28.0678L49.8597 27.9962L49.9211 27.9604L50.008 28.0524L50.0693 28.2313L50.1 28.3745L50.1306 28.4614Z" fill="#F7F7F7" stroke="#F7F7F7" stroke-width="0.278832"/>
<path d="M51.9606 33.1437L52.027 33.2102L52.0832 33.4351L52.1139 33.6549L52.1395 33.9514L52.1548 34.3143L52.1497 34.5545L52.1395 34.7897L52.0986 35.0862L52.0322 35.3929L51.9555 35.6996L51.889 35.8018L51.8328 35.95L51.7561 36.0727L51.6335 36.1392L51.4648 36.1647L51.3319 36.129L51.2859 36.0932L51.1018 35.9858L51.02 35.8683L50.9894 35.7865L50.9536 35.6587L50.9894 35.444L51.0865 35.306L51.3319 34.8101L51.4852 34.3705L51.659 33.7571L51.7715 33.3993L51.8481 33.1897L51.889 33.1182L51.9606 33.1437Z" fill="#F7F7F7" stroke="#F7F7F7" stroke-width="0.278832"/>
<path d="M50.2046 38.2886L50.4295 38.074L50.68 37.8857L50.9304 37.6711L51.0582 37.4872L51.1758 37.2463L51.2729 37.0273L51.2883 36.8741L51.2847 36.6284L51.1682 36.5025L51.0455 36.4293C50.962 36.321 50.8784 36.3268 50.7948 36.3365L50.4964 36.4641L50.0397 36.7949L49.5874 37.1184L49.1147 37.3988L48.5234 37.7279L48.0934 37.9733L47.9963 37.9996L47.8174 38.1879L47.7407 38.2667L47.6794 38.4069L47.6845 38.5164L47.7254 38.6784L47.797 38.8229L47.8839 38.9543L47.9657 39.0288L48.1139 39.1032L48.2877 39.1514L48.4973 39.1426L48.6608 39.1207L49.0033 38.9981L49.3714 38.7966L49.7394 38.5821L50.0001 38.4375L50.2046 38.2886Z" fill="#F7F7F7" stroke="#F7F7F7" stroke-width="0.258087"/>
<path d="M46.8728 46.1824L46.4339 45.2048C46.361 45.09 46.257 45.0272 46.2842 44.7458C46.3538 44.5239 46.3523 44.5 46.4338 44.3667C46.5436 44.1472 46.6533 44.151 46.7631 44.0574C46.9844 43.9059 47.1089 43.9966 47.2653 44.0075C47.5688 44.1784 47.6334 44.3015 47.774 44.4398L48.3028 45.78L48.4824 46.5682L48.5622 47.4661L48.3893 47.9849L48.0434 48.2443L47.7142 48.1678L47.5313 47.915L47.1389 46.8542L46.8728 46.1824Z" fill="#F7F7F7" stroke="#F7F7F7" stroke-width="0.278832"/>
<path d="M48.2246 48.7983L48.0782 48.612L47.9717 48.5588L47.8339 48.5324L47.6258 48.5455L47.4528 48.612L47.373 48.7983L47.3463 48.9048L47.2665 49.1044L47.2133 49.3173L47.1201 49.6704L46.9738 50.0358L46.7875 50.4749L46.6677 50.8209L46.5214 51.087L46.4548 51.2334V51.3531L46.5879 51.3665L46.8141 51.26L47.0137 51.1269L47.333 50.8475L47.5859 50.5015L47.9185 49.9959L48.0649 49.6704L48.2028 49.2822L48.2512 48.9979L48.2246 48.7983Z" fill="#F7F7F7" stroke="#F7F7F7" stroke-width="0.278832"/>
<path d="M42.1732 49.9481L42.0854 49.8515L41.9713 49.7637L41.8308 49.6703H41.6114L41.1812 49.7988L40.751 49.9305L40.4613 50.0183L40.0663 50.1324L39.759 50.1939L39.3991 50.2817L39.1094 50.3695L38.9689 50.5012L39.0128 50.5714L39.1445 50.6329L39.3025 50.6767L39.4781 50.7031L39.7239 50.7645L40.0399 50.7909L40.2594 50.7996H40.593L40.8827 50.7733L41.2338 50.7382L41.506 50.6855L41.8484 50.6065L42.0678 50.466L42.2083 50.2817V50.0447L42.1732 49.9481Z" fill="#F7F7F7" stroke="#F7F7F7" stroke-width="0.278832"/>
<path d="M43.332 47.9728L43.3671 47.7358L43.3759 47.4988V47.332L43.3408 47.1564V47.0423L43.332 46.9369L43.3759 46.7526L43.5252 46.5331L43.6481 46.4014L43.8675 46.3136L44.008 46.2258H44.1485L44.3065 46.2522L44.447 46.34L44.6576 46.4717L44.8157 46.7087L44.8596 46.8755L44.9122 47.1827L44.9035 47.5163L44.8596 47.9114L44.7981 48.2538L44.7103 48.5874L44.5435 48.9561L44.3153 49.2809L43.9992 49.6704L43.6569 49.8603L43.3847 50.0359L43.0599 50.1237L42.8316 50.15L42.6385 50.0974L42.5419 49.9745L42.4629 49.8252L42.4102 49.6704L42.4629 49.4126L42.6209 49.1756L42.9019 48.8244L43.1038 48.5523L43.2179 48.3504L43.2969 48.1572L43.332 47.9728Z" fill="#F7F7F7" stroke="#F7F7F7" stroke-width="0.278832"/>
</svg>
