<svg width="68" height="68" viewBox="0 0 68 68" fill="none" xmlns="http://www.w3.org/2000/svg">
<path d="M59 34C59 47.8071 47.8071 59 34 59C20.1929 59 9 47.8071 9 34C9 20.1929 20.1929 9 34 9C47.8071 9 59 20.1929 59 34Z" fill="#F08F1E" stroke="#F08F1E" stroke-width="17.2381" stroke-linecap="round" stroke-linejoin="round"/>
<path d="M14.1267 33.3614L14.721 30.7367L15.3648 28.7557C15.6821 28.071 15.9388 27.296 16.5039 26.446L17.597 25.0463C17.89 24.6354 18.3818 24.2741 18.8315 23.9024L20.2677 23.3081C20.7979 23.2161 21.328 23.245 21.8582 23.3601C22.4123 23.5117 22.7907 23.6808 23.1401 23.8528C23.7011 24.1253 24.1361 24.4609 24.5763 24.7938L25.9134 26.23C26.489 26.803 26.884 27.4888 27.3001 28.1614L28.0925 29.4986L28.7858 31.0833L29.5287 33.1634L30.0239 35.2929L30.1725 36.5805V37.9177L29.9744 39.1558L29.7268 40.3443L29.3801 41.4339L28.5877 42.8205L27.7458 43.7615L26.7058 44.6529L25.4677 45.4453L23.8355 45.8752C23.0795 46.041 22.5466 45.9289 22.0506 46.0396L19.9706 45.8415L18.0391 44.9005L16.5534 43.8605C15.9481 43.0847 15.4002 42.3088 14.9686 41.5329L14.2258 39.651L13.9782 38.2643L13.9276 36.1496L14.0277 34.7481L14.1267 33.3614Z" fill="#F7F7F7" stroke="#F7F7F7" stroke-width="0.278832"/>
<path d="M18.8298 31.0969L19.2545 29.7248L19.8099 28.6467L20.6593 27.6012L21.5414 27.0295L21.8028 26.7192L21.9008 26.0821C21.8811 25.9358 21.7244 25.7438 21.4434 25.5104L21.0514 25.347H20.6267L19.7772 25.9351L19.2872 26.3925L18.7971 26.8498L18.2091 27.6012L17.817 28.32L17.5557 29.0387L17.229 29.8881L17.0003 30.8029L16.9023 31.4563V31.685L17.1963 31.979L17.5557 32.2404L18.1274 32.3057L18.6338 31.979L18.7481 31.5706L18.8298 31.0969Z" fill="#F08F1E" stroke="#F08F1E" stroke-width="0.278832"/>
<path d="M43.4345 31.0453L46.0988 31.4248L48.1254 31.9059C48.8336 32.1666 49.6269 32.3596 50.5199 32.854L52.0036 33.83C52.437 34.0887 52.8369 34.5496 53.2439 34.9677L53.9527 36.351C54.0873 36.8719 54.1015 37.4027 54.0297 37.9404C53.9236 38.505 53.7857 38.8959 53.6426 39.2581C53.4165 39.8394 53.1173 40.3001 52.8212 40.7658L51.4981 42.215C50.9737 42.8352 50.3222 43.2845 49.6855 43.7537L48.417 44.6519L46.8936 45.4714L44.8807 46.3805L42.7983 47.0468L41.527 47.2993L40.1942 47.4077L38.9441 47.3106L37.7394 47.1602L36.6254 46.903L35.179 46.2256L34.1729 45.4628L33.2001 44.4985L32.3099 43.3287L31.7491 41.7367C31.5225 40.9966 31.591 40.4564 31.4405 39.971L31.4693 37.8818L32.2506 35.8804L33.1667 34.3152C33.891 33.649 34.6199 33.04 35.3582 32.547L37.1737 31.654L38.5357 31.2947L40.6394 31.0729L42.0444 31.059L43.4345 31.0453Z" fill="#F7F7F7" stroke="#F7F7F7" stroke-width="0.278832"/>
<path d="M46.0729 35.5493L47.4749 35.8613L48.5945 36.3275L49.7054 37.0893L50.3467 37.9222L50.6773 38.1575L51.3202 38.2036C51.4644 38.1721 51.6431 38.0003 51.8529 37.7013L51.984 37.2974L51.9495 36.874L51.2945 36.0751L50.7989 35.6237L50.3033 35.1724L49.5067 34.6472L48.7586 34.3147L48.021 34.1125L47.1479 33.8557L46.2176 33.702L45.5584 33.6572L45.3305 33.6758L45.0612 33.9927L44.8299 34.3721L44.8111 34.9472L45.1778 35.4254L45.5941 35.5063L46.0729 35.5493Z" fill="#F08F1E" stroke="#F08F1E" stroke-width="0.278832"/>
<path d="M27.5823 25.1007C28.0132 23.755 28.6216 22.5159 29.3325 21.3383C30.1863 19.9948 31.0419 18.6631 31.9506 17.6493C32.7221 16.8188 33.5551 16.067 34.6528 15.6719C35.3584 15.2379 36.0639 15.1641 36.7695 15.1749C37.6038 15.342 38.4106 15.8442 39.1328 16.3475C39.9301 17.0715 40.3421 17.6242 40.6378 18.1253C41.2262 19.1963 41.811 20.2673 42.1253 21.3383L42.8204 23.9912C42.9817 25.0222 43.143 26.3613 43.3044 27.7819V29.1803L41.3518 29.014C40.2892 29.0073 39.1746 28.9746 38.4348 29.1294C37.1839 29.168 36.2024 29.6781 35.1637 30.0879L33.4526 31.2148L31.7721 32.7031L30.4631 29.5495C30.2253 28.9884 29.8231 28.2628 29.305 27.4212C28.805 26.7368 28.3509 26.1075 27.5823 25.1007V25.1007Z" fill="#F7F7F7" stroke="#F7F7F7" stroke-width="0.278832"/>
<path d="M33.723 22.6979L34.3081 21.3861L34.9879 20.3818L35.9558 19.445L36.8997 18.9824L37.1962 18.7053L37.3693 18.0845C37.3667 17.9369 37.2345 17.7276 36.9833 17.4624L36.6135 17.2535L36.1918 17.2029L35.2784 17.6856L34.7374 18.0814L34.1964 18.4771L33.523 19.1532L33.0482 19.8201L32.7031 20.5026L32.2775 21.3071L31.9415 22.1881L31.7664 22.8251L31.7392 23.0522L31.9961 23.3792L32.3218 23.6815L32.8816 23.8144L33.4233 23.5504L33.5855 23.1585L33.723 22.6979Z" fill="#F08F1E" stroke="#F08F1E" stroke-width="0.278832" stroke-linejoin="round"/>
</svg>
