<svg width="30" height="30" viewBox="0 0 30 30" fill="none" xmlns="http://www.w3.org/2000/svg">
<path d="M15 1.875C7.75195 1.875 1.875 7.75195 1.875 15C1.875 22.248 7.75195 28.125 15 28.125C22.248 28.125 28.125 22.248 28.125 15C28.125 7.75195 22.248 1.875 15 1.875ZM15 25.8984C8.98242 25.8984 4.10156 21.0176 4.10156 15C4.10156 8.98242 8.98242 4.10156 15 4.10156C21.0176 4.10156 25.8984 8.98242 25.8984 15C25.8984 21.0176 21.0176 25.8984 15 25.8984Z" fill="#F08F1E"/>
<path d="M20.1184 18.7062L15.9407 15.6857V8.43475C15.9407 8.30585 15.8352 8.20038 15.7063 8.20038H14.2971C14.1682 8.20038 14.0627 8.30585 14.0627 8.43475V16.5031C14.0627 16.5793 14.0979 16.6496 14.1594 16.6935L19.0051 20.2267C19.1106 20.3029 19.2571 20.2795 19.3332 20.1769L20.1711 19.0344C20.2473 18.926 20.2239 18.7795 20.1184 18.7062Z" fill="#F08F1E"/>
</svg>
