<svg width="31" height="30" viewBox="0 0 31 30" fill="none" xmlns="http://www.w3.org/2000/svg">
<g clip-path="url(#clip0_253_80970)">
<path d="M15.1117 0C6.82821 0 0.111694 6.71652 0.111694 15C0.111694 23.2835 6.82821 30 15.1117 30C23.3952 30 30.1117 23.2835 30.1117 15C30.1117 6.71652 23.3952 0 15.1117 0ZM15.1117 27.4554C8.23446 27.4554 2.65634 21.8772 2.65634 15C2.65634 8.12277 8.23446 2.54464 15.1117 2.54464C21.9889 2.54464 27.5671 8.12277 27.5671 15C27.5671 21.8772 21.9889 27.4554 15.1117 27.4554ZM15.2992 9.61942C17.0737 9.61942 18.2791 10.7511 18.413 12.4118C18.4231 12.5525 18.5403 12.6596 18.6809 12.6596H20.5793C20.6664 12.6596 20.7367 12.5893 20.7367 12.5022C20.7367 9.59933 18.4465 7.56696 15.2891 7.56696C11.6095 7.56696 9.48669 10.0513 9.48669 14.1562V15.9074C9.48669 19.9821 11.6095 22.433 15.2891 22.433C18.4365 22.433 20.7367 20.4643 20.7367 17.6987C20.7367 17.6116 20.6664 17.5413 20.5793 17.5413H18.6775C18.5369 17.5413 18.4231 17.6484 18.4097 17.7857C18.2691 19.3292 17.0671 20.3906 15.2958 20.3906C13.1095 20.3906 11.8773 18.7868 11.8773 15.9174V14.1562C11.8807 11.2433 13.1162 9.61942 15.2992 9.61942Z" fill="#F08F1E"/>
</g>
<defs>
<clipPath id="clip0_253_80970">
<rect width="30" height="30" fill="white" transform="translate(0.111694)"/>
</clipPath>
</defs>
</svg>
