<svg width="30" height="30" viewBox="0 0 30 30" fill="none" xmlns="http://www.w3.org/2000/svg">
<path d="M27.322 1.604H2.67909C2.08646 1.604 1.60767 2.0828 1.60767 2.67543V27.3183C1.60767 27.9109 2.08646 28.3897 2.67909 28.3897H27.322C27.9146 28.3897 28.3934 27.9109 28.3934 27.3183V2.67543C28.3934 2.0828 27.9146 1.604 27.322 1.604ZM26.2505 26.2469H20.0865V18.017H23.5686L24.0909 13.9757H20.0865V11.3942C20.0865 10.2223 20.4112 9.42543 22.0887 9.42543H24.2282V5.80936C23.8566 5.75914 22.5876 5.64865 21.1077 5.64865C18.0206 5.64865 15.9079 7.53369 15.9079 10.9924V13.9723H12.4191V18.0136H15.9112V26.2469H3.75052V3.74686H26.2505V26.2469Z" fill="#F08F1E"/>
</svg>
