<svg width="31" height="30" viewBox="0 0 31 30" fill="none" xmlns="http://www.w3.org/2000/svg">
<path d="M15.8419 8.12819C12.0417 8.12819 8.9747 11.1952 8.9747 14.9954C8.9747 18.7956 12.0417 21.8626 15.8419 21.8626C19.6421 21.8626 22.7091 18.7956 22.7091 14.9954C22.7091 11.1952 19.6421 8.12819 15.8419 8.12819ZM15.8419 19.4585C13.3843 19.4585 11.3787 17.453 11.3787 14.9954C11.3787 12.5378 13.3843 10.5322 15.8419 10.5322C18.2995 10.5322 20.3051 12.5378 20.3051 14.9954C20.3051 17.453 18.2995 19.4585 15.8419 19.4585ZM22.9903 6.2465C22.103 6.2465 21.3865 6.96301 21.3865 7.85029C21.3865 8.73757 22.103 9.45409 22.9903 9.45409C23.8776 9.45409 24.5941 8.74092 24.5941 7.85029C24.5944 7.6396 24.5531 7.43093 24.4726 7.23623C24.3921 7.04153 24.2739 6.86463 24.125 6.71565C23.976 6.56667 23.7991 6.44854 23.6044 6.36804C23.4097 6.28754 23.201 6.24623 22.9903 6.2465ZM29.228 14.9954C29.228 13.1472 29.2448 11.3157 29.141 9.47083C29.0372 7.32797 28.5484 5.42618 26.9814 3.85922C25.4111 2.28891 23.5126 1.80342 21.3698 1.69962C19.5216 1.59583 17.6901 1.61257 15.8452 1.61257C13.997 1.61257 12.1655 1.59583 10.3207 1.69962C8.17782 1.80342 6.27604 2.29226 4.70907 3.85922C3.13876 5.42953 2.65327 7.32797 2.54948 9.47083C2.44568 11.319 2.46242 13.1505 2.46242 14.9954C2.46242 16.8402 2.44568 18.6751 2.54948 20.5199C2.65327 22.6628 3.14211 24.5646 4.70907 26.1315C6.27939 27.7019 8.17782 28.1873 10.3207 28.2911C12.1689 28.3949 14.0004 28.3782 15.8452 28.3782C17.6934 28.3782 19.5249 28.3949 21.3698 28.2911C23.5126 28.1873 25.4144 27.6985 26.9814 26.1315C28.5517 24.5612 29.0372 22.6628 29.141 20.5199C29.2481 18.6751 29.228 16.8436 29.228 14.9954ZM26.2816 22.8905C26.0372 23.4998 25.7426 23.9552 25.2705 24.424C24.7984 24.896 24.3464 25.1907 23.737 25.4351C21.9758 26.1349 17.7939 25.9775 15.8419 25.9775C13.8899 25.9775 9.70461 26.1349 7.94345 25.4385C7.33407 25.194 6.87872 24.8994 6.40997 24.4273C5.93787 23.9552 5.64323 23.5032 5.39881 22.8938C4.70238 21.1293 4.85974 16.9474 4.85974 14.9954C4.85974 13.0434 4.70238 8.8581 5.39881 7.09694C5.64323 6.48757 5.93787 6.03221 6.40997 5.56346C6.88206 5.09471 7.33407 4.79672 7.94345 4.5523C9.70461 3.85587 13.8899 4.01324 15.8419 4.01324C17.7939 4.01324 21.9792 3.85587 23.7403 4.5523C24.3497 4.79672 24.8051 5.09136 25.2738 5.56346C25.7459 6.03556 26.0406 6.48757 26.285 7.09694C26.9814 8.8581 26.824 13.0434 26.824 14.9954C26.824 16.9474 26.9814 21.1293 26.2816 22.8905Z" fill="#F08F1E"/>
</svg>
