<svg width="30" height="30" viewBox="0 0 30 30" fill="none" xmlns="http://www.w3.org/2000/svg">
<g clip-path="url(#clip0_253_80980)">
<path d="M28.9286 3.20825H1.07143C0.478795 3.20825 0 3.68705 0 4.27968V25.7083C0 26.3009 0.478795 26.7797 1.07143 26.7797H28.9286C29.5212 26.7797 30 26.3009 30 25.7083V4.27968C30 3.68705 29.5212 3.20825 28.9286 3.20825ZM27.5893 6.91807V24.369H2.41071V6.91807L1.48661 6.19821L2.80246 4.50736L4.23549 5.62232H25.7679L27.2009 4.50736L28.5167 6.19821L27.5893 6.91807ZM25.7679 5.61897L15 13.9895L4.23214 5.61897L2.79911 4.50401L1.48326 6.19486L2.40737 6.91473L13.8449 15.8076C14.1738 16.0631 14.5785 16.2018 14.995 16.2018C15.4115 16.2018 15.8162 16.0631 16.1451 15.8076L27.5893 6.91807L28.5134 6.19821L27.1975 4.50736L25.7679 5.61897Z" fill="#F08F1E"/>
</g>
<defs>
<clipPath id="clip0_253_80980">
<rect width="30" height="30" fill="white"/>
</clipPath>
</defs>
</svg>
